<mxfile host="app.diagrams.net" modified="2023-08-16T00:42:01.963Z" agent="Mozilla/5.0 (Windows NT 10.0; Win64; x64) AppleWebKit/537.36 (KHTML, like Gecko) Chrome/115.0.0.0 Safari/537.36" etag="hTUShQFR_rP5nFIUkRZM" version="21.6.8" type="github">
  <diagram name="PÃ¡gina-1" id="T5pB055ITA6RkEdO5A4q">
    <mxGraphModel dx="1195" dy="1827" grid="1" gridSize="10" guides="1" tooltips="1" connect="1" arrows="1" fold="1" page="1" pageScale="1" pageWidth="827" pageHeight="1169" math="0" shadow="0">
      <root>
        <mxCell id="0" />
        <mxCell id="1" parent="0" />
        <mxCell id="0n9UJO-PWEgKDpVl8PzF-2" value="&lt;font style=&quot;font-size: 14px;&quot;&gt;5,40 Metros&lt;/font&gt;" style="text;html=1;strokeColor=none;fillColor=none;align=center;verticalAlign=middle;whiteSpace=wrap;rounded=0;" vertex="1" parent="1">
          <mxGeometry x="292" y="560" width="140" height="40" as="geometry" />
        </mxCell>
        <mxCell id="0n9UJO-PWEgKDpVl8PzF-3" value="&lt;font style=&quot;font-size: 14px;&quot;&gt;14 Metros&lt;/font&gt;" style="text;html=1;strokeColor=none;fillColor=none;align=center;verticalAlign=middle;whiteSpace=wrap;rounded=0;" vertex="1" parent="1">
          <mxGeometry x="460" y="258.5" width="140" height="50" as="geometry" />
        </mxCell>
        <mxCell id="0n9UJO-PWEgKDpVl8PzF-9" value="" style="endArrow=classic;html=1;rounded=0;" edge="1" parent="1">
          <mxGeometry width="50" height="50" relative="1" as="geometry">
            <mxPoint x="240" y="560" as="sourcePoint" />
            <mxPoint x="240" as="targetPoint" />
          </mxGeometry>
        </mxCell>
        <mxCell id="0n9UJO-PWEgKDpVl8PzF-10" value="" style="endArrow=classic;html=1;rounded=0;" edge="1" parent="1">
          <mxGeometry width="50" height="50" relative="1" as="geometry">
            <mxPoint x="240" y="560" as="sourcePoint" />
            <mxPoint x="460" y="560" as="targetPoint" />
          </mxGeometry>
        </mxCell>
        <mxCell id="0n9UJO-PWEgKDpVl8PzF-11" value="" style="endArrow=classic;html=1;rounded=0;" edge="1" parent="1">
          <mxGeometry width="50" height="50" relative="1" as="geometry">
            <mxPoint x="460" y="560" as="sourcePoint" />
            <mxPoint x="460" as="targetPoint" />
          </mxGeometry>
        </mxCell>
        <mxCell id="0n9UJO-PWEgKDpVl8PzF-16" value="" style="verticalLabelPosition=bottom;dashed=0;shadow=0;html=1;align=center;verticalAlign=top;shape=mxgraph.cabinets.motor_protection_cb;" vertex="1" parent="1">
          <mxGeometry x="416" y="420" width="27" height="50" as="geometry" />
        </mxCell>
        <mxCell id="0n9UJO-PWEgKDpVl8PzF-17" value="100x40" style="shape=rect;dashed=0;shadow=0;html=1;whiteSpace=wrap;direction=south;horizontal=0;" vertex="1" parent="1">
          <mxGeometry x="250" y="410" width="20" height="90" as="geometry" />
        </mxCell>
        <mxCell id="0n9UJO-PWEgKDpVl8PzF-29" value="100x40" style="shape=rect;dashed=0;shadow=0;html=1;whiteSpace=wrap;direction=south;horizontal=0;" vertex="1" parent="1">
          <mxGeometry x="250" y="310" width="20" height="90" as="geometry" />
        </mxCell>
        <mxCell id="0n9UJO-PWEgKDpVl8PzF-30" value="100x40" style="shape=rect;dashed=0;shadow=0;html=1;whiteSpace=wrap;direction=south;horizontal=0;" vertex="1" parent="1">
          <mxGeometry x="250" y="250" width="20" height="50" as="geometry" />
        </mxCell>
        <mxCell id="0n9UJO-PWEgKDpVl8PzF-31" value="100x40" style="shape=rect;dashed=0;shadow=0;html=1;whiteSpace=wrap;direction=south;horizontal=0;" vertex="1" parent="1">
          <mxGeometry x="246.5" y="150" width="20" height="90" as="geometry" />
        </mxCell>
        <mxCell id="0n9UJO-PWEgKDpVl8PzF-32" value="100x40" style="shape=rect;dashed=0;shadow=0;html=1;whiteSpace=wrap;direction=south;horizontal=0;" vertex="1" parent="1">
          <mxGeometry x="246.5" y="50" width="20" height="90" as="geometry" />
        </mxCell>
        <mxCell id="0n9UJO-PWEgKDpVl8PzF-33" value="" style="verticalLabelPosition=bottom;html=1;verticalAlign=top;align=center;shape=mxgraph.floorplan.office_chair;shadow=0;rotation=-180;" vertex="1" parent="1">
          <mxGeometry x="280" y="125.5" width="30" height="23" as="geometry" />
        </mxCell>
        <mxCell id="0n9UJO-PWEgKDpVl8PzF-34" value="" style="shape=rect;shadow=0;html=1;rotation=-180;" vertex="1" parent="1">
          <mxGeometry x="280" y="97" width="60" height="30" as="geometry" />
        </mxCell>
        <mxCell id="0n9UJO-PWEgKDpVl8PzF-35" value="" style="verticalLabelPosition=bottom;html=1;verticalAlign=top;align=center;shape=mxgraph.floorplan.workstation;shadow=0;flipV=1;rotation=-180;" vertex="1" parent="1">
          <mxGeometry x="293.5" y="97" width="30" height="15" as="geometry" />
        </mxCell>
        <mxCell id="0n9UJO-PWEgKDpVl8PzF-36" value="" style="verticalLabelPosition=bottom;html=1;verticalAlign=top;align=center;shape=mxgraph.floorplan.office_chair;shadow=0;rotation=-180;" vertex="1" parent="1">
          <mxGeometry x="410" y="125.5" width="30" height="23" as="geometry" />
        </mxCell>
        <mxCell id="0n9UJO-PWEgKDpVl8PzF-37" value="" style="shape=rect;shadow=0;html=1;rotation=-180;" vertex="1" parent="1">
          <mxGeometry x="380" y="97" width="60" height="30" as="geometry" />
        </mxCell>
        <mxCell id="0n9UJO-PWEgKDpVl8PzF-38" value="" style="verticalLabelPosition=bottom;html=1;verticalAlign=top;align=center;shape=mxgraph.floorplan.workstation;shadow=0;flipV=1;rotation=-180;" vertex="1" parent="1">
          <mxGeometry x="393.5" y="97" width="30" height="15" as="geometry" />
        </mxCell>
        <mxCell id="0n9UJO-PWEgKDpVl8PzF-39" value="" style="verticalLabelPosition=bottom;html=1;verticalAlign=top;align=center;shape=mxgraph.floorplan.office_chair;shadow=0;rotation=-180;" vertex="1" parent="1">
          <mxGeometry x="278.5" y="188.5" width="30" height="23" as="geometry" />
        </mxCell>
        <mxCell id="0n9UJO-PWEgKDpVl8PzF-40" value="" style="shape=rect;shadow=0;html=1;rotation=-180;" vertex="1" parent="1">
          <mxGeometry x="278.5" y="160" width="60" height="30" as="geometry" />
        </mxCell>
        <mxCell id="0n9UJO-PWEgKDpVl8PzF-41" value="" style="verticalLabelPosition=bottom;html=1;verticalAlign=top;align=center;shape=mxgraph.floorplan.workstation;shadow=0;flipV=1;rotation=-180;" vertex="1" parent="1">
          <mxGeometry x="292" y="160" width="30" height="15" as="geometry" />
        </mxCell>
        <mxCell id="0n9UJO-PWEgKDpVl8PzF-42" value="" style="verticalLabelPosition=bottom;html=1;verticalAlign=top;align=center;shape=mxgraph.floorplan.office_chair;shadow=0;rotation=-180;" vertex="1" parent="1">
          <mxGeometry x="408.5" y="188.5" width="30" height="23" as="geometry" />
        </mxCell>
        <mxCell id="0n9UJO-PWEgKDpVl8PzF-43" value="" style="shape=rect;shadow=0;html=1;rotation=-180;" vertex="1" parent="1">
          <mxGeometry x="378.5" y="160" width="60" height="30" as="geometry" />
        </mxCell>
        <mxCell id="0n9UJO-PWEgKDpVl8PzF-44" value="" style="verticalLabelPosition=bottom;html=1;verticalAlign=top;align=center;shape=mxgraph.floorplan.workstation;shadow=0;flipV=1;rotation=-180;" vertex="1" parent="1">
          <mxGeometry x="393.5" y="160" width="30" height="15" as="geometry" />
        </mxCell>
        <mxCell id="0n9UJO-PWEgKDpVl8PzF-45" value="" style="verticalLabelPosition=bottom;html=1;verticalAlign=top;align=center;shape=mxgraph.floorplan.office_chair;shadow=0;rotation=-180;" vertex="1" parent="1">
          <mxGeometry x="280" y="258.5" width="30" height="23" as="geometry" />
        </mxCell>
        <mxCell id="0n9UJO-PWEgKDpVl8PzF-46" value="" style="shape=rect;shadow=0;html=1;rotation=-180;" vertex="1" parent="1">
          <mxGeometry x="280" y="230" width="60" height="30" as="geometry" />
        </mxCell>
        <mxCell id="0n9UJO-PWEgKDpVl8PzF-47" value="" style="verticalLabelPosition=bottom;html=1;verticalAlign=top;align=center;shape=mxgraph.floorplan.workstation;shadow=0;flipV=1;rotation=-180;" vertex="1" parent="1">
          <mxGeometry x="293.5" y="230" width="30" height="15" as="geometry" />
        </mxCell>
        <mxCell id="0n9UJO-PWEgKDpVl8PzF-48" value="" style="verticalLabelPosition=bottom;html=1;verticalAlign=top;align=center;shape=mxgraph.floorplan.office_chair;shadow=0;rotation=-180;" vertex="1" parent="1">
          <mxGeometry x="408.5" y="258.5" width="30" height="23" as="geometry" />
        </mxCell>
        <mxCell id="0n9UJO-PWEgKDpVl8PzF-49" value="" style="shape=rect;shadow=0;html=1;rotation=-180;" vertex="1" parent="1">
          <mxGeometry x="380" y="230" width="60" height="30" as="geometry" />
        </mxCell>
        <mxCell id="0n9UJO-PWEgKDpVl8PzF-50" value="" style="verticalLabelPosition=bottom;html=1;verticalAlign=top;align=center;shape=mxgraph.floorplan.workstation;shadow=0;flipV=1;rotation=-180;" vertex="1" parent="1">
          <mxGeometry x="395" y="230" width="30" height="15" as="geometry" />
        </mxCell>
        <mxCell id="0n9UJO-PWEgKDpVl8PzF-51" value="" style="verticalLabelPosition=bottom;html=1;verticalAlign=top;align=center;shape=mxgraph.floorplan.office_chair;shadow=0;rotation=-180;" vertex="1" parent="1">
          <mxGeometry x="281.5" y="330" width="30" height="23" as="geometry" />
        </mxCell>
        <mxCell id="0n9UJO-PWEgKDpVl8PzF-52" value="" style="shape=rect;shadow=0;html=1;rotation=-180;" vertex="1" parent="1">
          <mxGeometry x="281.5" y="300" width="60" height="30" as="geometry" />
        </mxCell>
        <mxCell id="0n9UJO-PWEgKDpVl8PzF-53" value="" style="verticalLabelPosition=bottom;html=1;verticalAlign=top;align=center;shape=mxgraph.floorplan.workstation;shadow=0;flipV=1;rotation=-180;" vertex="1" parent="1">
          <mxGeometry x="295" y="300" width="30" height="15" as="geometry" />
        </mxCell>
        <mxCell id="0n9UJO-PWEgKDpVl8PzF-54" value="" style="verticalLabelPosition=bottom;html=1;verticalAlign=top;align=center;shape=mxgraph.floorplan.office_chair;shadow=0;rotation=-180;" vertex="1" parent="1">
          <mxGeometry x="408.5" y="330" width="30" height="23" as="geometry" />
        </mxCell>
        <mxCell id="0n9UJO-PWEgKDpVl8PzF-55" value="" style="shape=rect;shadow=0;html=1;rotation=-180;" vertex="1" parent="1">
          <mxGeometry x="380" y="300" width="60" height="30" as="geometry" />
        </mxCell>
        <mxCell id="0n9UJO-PWEgKDpVl8PzF-56" value="" style="verticalLabelPosition=bottom;html=1;verticalAlign=top;align=center;shape=mxgraph.floorplan.workstation;shadow=0;flipV=1;rotation=-180;" vertex="1" parent="1">
          <mxGeometry x="393.5" y="300" width="30" height="15" as="geometry" />
        </mxCell>
        <mxCell id="0n9UJO-PWEgKDpVl8PzF-57" value="" style="verticalLabelPosition=bottom;html=1;verticalAlign=top;align=center;shape=mxgraph.floorplan.office_chair;shadow=0;" vertex="1" parent="1">
          <mxGeometry x="400" y="50" width="25" height="20" as="geometry" />
        </mxCell>
        <mxCell id="0n9UJO-PWEgKDpVl8PzF-58" value="" style="shape=rect;shadow=0;html=1;" vertex="1" parent="1">
          <mxGeometry x="380" y="70" width="55" height="20" as="geometry" />
        </mxCell>
        <mxCell id="0n9UJO-PWEgKDpVl8PzF-59" value="" style="verticalLabelPosition=bottom;html=1;verticalAlign=top;align=center;shape=mxgraph.floorplan.workstation;shadow=0;flipV=1;" vertex="1" parent="1">
          <mxGeometry x="387.5" y="70" width="45" height="20" as="geometry" />
        </mxCell>
        <mxCell id="0n9UJO-PWEgKDpVl8PzF-60" value="" style="verticalLabelPosition=bottom;html=1;verticalAlign=top;align=center;shape=mxgraph.floorplan.office_chair;shadow=0;rotation=-180;" vertex="1" parent="1">
          <mxGeometry x="311.5" y="125.5" width="30" height="23" as="geometry" />
        </mxCell>
        <mxCell id="0n9UJO-PWEgKDpVl8PzF-61" value="" style="verticalLabelPosition=bottom;html=1;verticalAlign=top;align=center;shape=mxgraph.floorplan.office_chair;shadow=0;rotation=-180;" vertex="1" parent="1">
          <mxGeometry x="280.75" y="387" width="30" height="23" as="geometry" />
        </mxCell>
        <mxCell id="0n9UJO-PWEgKDpVl8PzF-62" value="" style="shape=rect;shadow=0;html=1;rotation=-180;" vertex="1" parent="1">
          <mxGeometry x="280.75" y="358.5" width="60" height="30" as="geometry" />
        </mxCell>
        <mxCell id="0n9UJO-PWEgKDpVl8PzF-63" value="" style="verticalLabelPosition=bottom;html=1;verticalAlign=top;align=center;shape=mxgraph.floorplan.workstation;shadow=0;flipV=1;rotation=-180;" vertex="1" parent="1">
          <mxGeometry x="294.25" y="358.5" width="30" height="15" as="geometry" />
        </mxCell>
        <mxCell id="0n9UJO-PWEgKDpVl8PzF-64" value="" style="verticalLabelPosition=bottom;html=1;verticalAlign=top;align=center;shape=mxgraph.floorplan.office_chair;shadow=0;rotation=-180;" vertex="1" parent="1">
          <mxGeometry x="312.25" y="387" width="30" height="23" as="geometry" />
        </mxCell>
        <mxCell id="0n9UJO-PWEgKDpVl8PzF-65" value="" style="verticalLabelPosition=bottom;html=1;verticalAlign=top;align=center;shape=mxgraph.floorplan.office_chair;shadow=0;rotation=-180;" vertex="1" parent="1">
          <mxGeometry x="383" y="387" width="30" height="23" as="geometry" />
        </mxCell>
        <mxCell id="0n9UJO-PWEgKDpVl8PzF-66" value="" style="shape=rect;shadow=0;html=1;rotation=-180;" vertex="1" parent="1">
          <mxGeometry x="383" y="358.5" width="60" height="30" as="geometry" />
        </mxCell>
        <mxCell id="0n9UJO-PWEgKDpVl8PzF-67" value="" style="verticalLabelPosition=bottom;html=1;verticalAlign=top;align=center;shape=mxgraph.floorplan.workstation;shadow=0;flipV=1;rotation=-180;" vertex="1" parent="1">
          <mxGeometry x="396.5" y="358.5" width="30" height="15" as="geometry" />
        </mxCell>
        <mxCell id="0n9UJO-PWEgKDpVl8PzF-68" value="" style="verticalLabelPosition=bottom;html=1;verticalAlign=top;align=center;shape=mxgraph.floorplan.office_chair;shadow=0;rotation=-180;" vertex="1" parent="1">
          <mxGeometry x="414.5" y="387" width="24.5" height="20" as="geometry" />
        </mxCell>
        <mxCell id="0n9UJO-PWEgKDpVl8PzF-74" value="" style="verticalLabelPosition=bottom;html=1;verticalAlign=top;align=center;shape=mxgraph.floorplan.office_chair;shadow=0;rotation=-180;" vertex="1" parent="1">
          <mxGeometry x="378.5" y="330" width="30" height="23" as="geometry" />
        </mxCell>
        <mxCell id="0n9UJO-PWEgKDpVl8PzF-75" value="" style="verticalLabelPosition=bottom;html=1;verticalAlign=top;align=center;shape=mxgraph.floorplan.office_chair;shadow=0;rotation=-180;" vertex="1" parent="1">
          <mxGeometry x="312.25" y="330" width="30" height="23" as="geometry" />
        </mxCell>
        <mxCell id="0n9UJO-PWEgKDpVl8PzF-76" value="" style="verticalLabelPosition=bottom;html=1;verticalAlign=top;align=center;shape=mxgraph.floorplan.office_chair;shadow=0;rotation=-180;" vertex="1" parent="1">
          <mxGeometry x="378.5" y="260" width="30" height="23" as="geometry" />
        </mxCell>
        <mxCell id="0n9UJO-PWEgKDpVl8PzF-77" value="" style="verticalLabelPosition=bottom;html=1;verticalAlign=top;align=center;shape=mxgraph.floorplan.office_chair;shadow=0;rotation=-180;" vertex="1" parent="1">
          <mxGeometry x="312.25" y="260" width="30" height="23" as="geometry" />
        </mxCell>
        <mxCell id="0n9UJO-PWEgKDpVl8PzF-78" value="" style="verticalLabelPosition=bottom;html=1;verticalAlign=top;align=center;shape=mxgraph.floorplan.office_chair;shadow=0;rotation=-180;" vertex="1" parent="1">
          <mxGeometry x="308.5" y="190" width="30" height="23" as="geometry" />
        </mxCell>
        <mxCell id="0n9UJO-PWEgKDpVl8PzF-79" value="" style="verticalLabelPosition=bottom;html=1;verticalAlign=top;align=center;shape=mxgraph.floorplan.office_chair;shadow=0;rotation=-180;" vertex="1" parent="1">
          <mxGeometry x="378.5" y="190" width="30" height="23" as="geometry" />
        </mxCell>
        <mxCell id="0n9UJO-PWEgKDpVl8PzF-80" value="" style="verticalLabelPosition=bottom;html=1;verticalAlign=top;align=center;shape=mxgraph.floorplan.office_chair;shadow=0;rotation=-180;" vertex="1" parent="1">
          <mxGeometry x="378.5" y="127" width="30" height="23" as="geometry" />
        </mxCell>
        <mxCell id="0n9UJO-PWEgKDpVl8PzF-93" value="" style="shape=flexArrow;endArrow=classic;html=1;rounded=0;" edge="1" parent="1">
          <mxGeometry width="50" height="50" relative="1" as="geometry">
            <mxPoint x="360" y="70" as="sourcePoint" />
            <mxPoint x="360" y="510" as="targetPoint" />
          </mxGeometry>
        </mxCell>
        <mxCell id="0n9UJO-PWEgKDpVl8PzF-100" value="" style="endArrow=classic;html=1;rounded=0;entryX=1;entryY=0.25;entryDx=0;entryDy=0;" edge="1" parent="1">
          <mxGeometry width="50" height="50" relative="1" as="geometry">
            <mxPoint x="355.63" y="160.32999999999998" as="sourcePoint" />
            <mxPoint x="335.63" y="160" as="targetPoint" />
          </mxGeometry>
        </mxCell>
        <mxCell id="0n9UJO-PWEgKDpVl8PzF-115" value="" style="endArrow=classic;html=1;rounded=0;entryX=1;entryY=0.25;entryDx=0;entryDy=0;" edge="1" parent="1">
          <mxGeometry width="50" height="50" relative="1" as="geometry">
            <mxPoint x="355.63" y="104.41" as="sourcePoint" />
            <mxPoint x="335.63" y="104.08" as="targetPoint" />
          </mxGeometry>
        </mxCell>
        <mxCell id="0n9UJO-PWEgKDpVl8PzF-116" value="" style="endArrow=classic;html=1;rounded=0;entryX=1;entryY=0.25;entryDx=0;entryDy=0;" edge="1" parent="1">
          <mxGeometry width="50" height="50" relative="1" as="geometry">
            <mxPoint x="355.63" y="111.5" as="sourcePoint" />
            <mxPoint x="335.63" y="111.17" as="targetPoint" />
          </mxGeometry>
        </mxCell>
        <mxCell id="0n9UJO-PWEgKDpVl8PzF-117" value="" style="endArrow=classic;html=1;rounded=0;entryX=1;entryY=0.25;entryDx=0;entryDy=0;" edge="1" parent="1">
          <mxGeometry width="50" height="50" relative="1" as="geometry">
            <mxPoint x="358.5" y="120.33" as="sourcePoint" />
            <mxPoint x="338.5" y="120" as="targetPoint" />
          </mxGeometry>
        </mxCell>
        <mxCell id="0n9UJO-PWEgKDpVl8PzF-118" value="" style="endArrow=classic;html=1;rounded=0;entryX=1;entryY=0.25;entryDx=0;entryDy=0;" edge="1" parent="1">
          <mxGeometry width="50" height="50" relative="1" as="geometry">
            <mxPoint x="355" y="174.5" as="sourcePoint" />
            <mxPoint x="335" y="174.17000000000002" as="targetPoint" />
          </mxGeometry>
        </mxCell>
        <mxCell id="0n9UJO-PWEgKDpVl8PzF-119" value="" style="endArrow=classic;html=1;rounded=0;entryX=1;entryY=0.25;entryDx=0;entryDy=0;" edge="1" parent="1">
          <mxGeometry width="50" height="50" relative="1" as="geometry">
            <mxPoint x="358.5" y="188" as="sourcePoint" />
            <mxPoint x="338.5" y="187.67000000000002" as="targetPoint" />
          </mxGeometry>
        </mxCell>
        <mxCell id="0n9UJO-PWEgKDpVl8PzF-120" value="" style="endArrow=classic;html=1;rounded=0;entryX=1;entryY=0.25;entryDx=0;entryDy=0;" edge="1" parent="1">
          <mxGeometry width="50" height="50" relative="1" as="geometry">
            <mxPoint x="358.5" y="237.41" as="sourcePoint" />
            <mxPoint x="338.5" y="237.08" as="targetPoint" />
          </mxGeometry>
        </mxCell>
        <mxCell id="0n9UJO-PWEgKDpVl8PzF-121" value="" style="endArrow=classic;html=1;rounded=0;entryX=1;entryY=0.25;entryDx=0;entryDy=0;" edge="1" parent="1">
          <mxGeometry width="50" height="50" relative="1" as="geometry">
            <mxPoint x="359.13" y="244.5" as="sourcePoint" />
            <mxPoint x="339.13" y="244.17000000000002" as="targetPoint" />
          </mxGeometry>
        </mxCell>
        <mxCell id="0n9UJO-PWEgKDpVl8PzF-122" value="" style="endArrow=classic;html=1;rounded=0;entryX=1;entryY=0.25;entryDx=0;entryDy=0;" edge="1" parent="1">
          <mxGeometry width="50" height="50" relative="1" as="geometry">
            <mxPoint x="355" y="250.32999999999998" as="sourcePoint" />
            <mxPoint x="335" y="250" as="targetPoint" />
          </mxGeometry>
        </mxCell>
        <mxCell id="0n9UJO-PWEgKDpVl8PzF-123" value="" style="endArrow=classic;html=1;rounded=0;entryX=1;entryY=0.25;entryDx=0;entryDy=0;" edge="1" parent="1">
          <mxGeometry width="50" height="50" relative="1" as="geometry">
            <mxPoint x="358.5" y="310.33" as="sourcePoint" />
            <mxPoint x="338.5" y="310" as="targetPoint" />
          </mxGeometry>
        </mxCell>
        <mxCell id="0n9UJO-PWEgKDpVl8PzF-124" value="" style="endArrow=classic;html=1;rounded=0;entryX=1;entryY=0.25;entryDx=0;entryDy=0;" edge="1" parent="1">
          <mxGeometry width="50" height="50" relative="1" as="geometry">
            <mxPoint x="359.13" y="320.33" as="sourcePoint" />
            <mxPoint x="339.13" y="320" as="targetPoint" />
          </mxGeometry>
        </mxCell>
        <mxCell id="0n9UJO-PWEgKDpVl8PzF-125" value="" style="endArrow=classic;html=1;rounded=0;entryX=1;entryY=0.25;entryDx=0;entryDy=0;" edge="1" parent="1">
          <mxGeometry width="50" height="50" relative="1" as="geometry">
            <mxPoint x="358.5" y="300.33" as="sourcePoint" />
            <mxPoint x="338.5" y="300" as="targetPoint" />
          </mxGeometry>
        </mxCell>
        <mxCell id="0n9UJO-PWEgKDpVl8PzF-126" value="" style="endArrow=classic;html=1;rounded=0;entryX=1;entryY=0.25;entryDx=0;entryDy=0;" edge="1" parent="1">
          <mxGeometry width="50" height="50" relative="1" as="geometry">
            <mxPoint x="355" y="365.90999999999997" as="sourcePoint" />
            <mxPoint x="335" y="365.58000000000004" as="targetPoint" />
          </mxGeometry>
        </mxCell>
        <mxCell id="0n9UJO-PWEgKDpVl8PzF-127" value="" style="endArrow=classic;html=1;rounded=0;entryX=1;entryY=0.25;entryDx=0;entryDy=0;" edge="1" parent="1">
          <mxGeometry width="50" height="50" relative="1" as="geometry">
            <mxPoint x="355.63" y="373.83000000000004" as="sourcePoint" />
            <mxPoint x="335.63" y="373.5" as="targetPoint" />
          </mxGeometry>
        </mxCell>
        <mxCell id="0n9UJO-PWEgKDpVl8PzF-128" value="" style="endArrow=classic;html=1;rounded=0;entryX=1;entryY=0.25;entryDx=0;entryDy=0;" edge="1" parent="1">
          <mxGeometry width="50" height="50" relative="1" as="geometry">
            <mxPoint x="355" y="380.33000000000004" as="sourcePoint" />
            <mxPoint x="335" y="380" as="targetPoint" />
          </mxGeometry>
        </mxCell>
        <mxCell id="0n9UJO-PWEgKDpVl8PzF-129" value="" style="endArrow=classic;html=1;rounded=0;" edge="1" parent="1">
          <mxGeometry width="50" height="50" relative="1" as="geometry">
            <mxPoint x="360" y="104.08" as="sourcePoint" />
            <mxPoint x="380" y="104.08" as="targetPoint" />
          </mxGeometry>
        </mxCell>
        <mxCell id="0n9UJO-PWEgKDpVl8PzF-130" value="" style="endArrow=classic;html=1;rounded=0;" edge="1" parent="1">
          <mxGeometry width="50" height="50" relative="1" as="geometry">
            <mxPoint x="362.63" y="112" as="sourcePoint" />
            <mxPoint x="382.63" y="112" as="targetPoint" />
          </mxGeometry>
        </mxCell>
        <mxCell id="0n9UJO-PWEgKDpVl8PzF-131" value="" style="endArrow=classic;html=1;rounded=0;" edge="1" parent="1">
          <mxGeometry width="50" height="50" relative="1" as="geometry">
            <mxPoint x="363" y="120" as="sourcePoint" />
            <mxPoint x="383" y="120" as="targetPoint" />
          </mxGeometry>
        </mxCell>
        <mxCell id="0n9UJO-PWEgKDpVl8PzF-132" value="" style="endArrow=classic;html=1;rounded=0;" edge="1" parent="1">
          <mxGeometry width="50" height="50" relative="1" as="geometry">
            <mxPoint x="362.63" y="160" as="sourcePoint" />
            <mxPoint x="382.63" y="160" as="targetPoint" />
          </mxGeometry>
        </mxCell>
        <mxCell id="0n9UJO-PWEgKDpVl8PzF-133" value="" style="endArrow=classic;html=1;rounded=0;" edge="1" parent="1">
          <mxGeometry width="50" height="50" relative="1" as="geometry">
            <mxPoint x="363" y="167.07999999999998" as="sourcePoint" />
            <mxPoint x="383" y="167.07999999999998" as="targetPoint" />
          </mxGeometry>
        </mxCell>
        <mxCell id="0n9UJO-PWEgKDpVl8PzF-134" value="" style="endArrow=classic;html=1;rounded=0;" edge="1" parent="1">
          <mxGeometry width="50" height="50" relative="1" as="geometry">
            <mxPoint x="363" y="175" as="sourcePoint" />
            <mxPoint x="383" y="175" as="targetPoint" />
          </mxGeometry>
        </mxCell>
        <mxCell id="0n9UJO-PWEgKDpVl8PzF-135" value="" style="endArrow=classic;html=1;rounded=0;" edge="1" parent="1">
          <mxGeometry width="50" height="50" relative="1" as="geometry">
            <mxPoint x="362.63" y="237.07999999999998" as="sourcePoint" />
            <mxPoint x="382.63" y="237.07999999999998" as="targetPoint" />
          </mxGeometry>
        </mxCell>
        <mxCell id="0n9UJO-PWEgKDpVl8PzF-136" value="" style="endArrow=classic;html=1;rounded=0;" edge="1" parent="1">
          <mxGeometry width="50" height="50" relative="1" as="geometry">
            <mxPoint x="358.5" y="244.57999999999998" as="sourcePoint" />
            <mxPoint x="378.5" y="244.57999999999998" as="targetPoint" />
          </mxGeometry>
        </mxCell>
        <mxCell id="0n9UJO-PWEgKDpVl8PzF-137" value="" style="endArrow=classic;html=1;rounded=0;" edge="1" parent="1">
          <mxGeometry width="50" height="50" relative="1" as="geometry">
            <mxPoint x="362.63" y="250" as="sourcePoint" />
            <mxPoint x="382.63" y="250" as="targetPoint" />
          </mxGeometry>
        </mxCell>
        <mxCell id="0n9UJO-PWEgKDpVl8PzF-138" value="" style="endArrow=classic;html=1;rounded=0;" edge="1" parent="1">
          <mxGeometry width="50" height="50" relative="1" as="geometry">
            <mxPoint x="360" y="307.08000000000004" as="sourcePoint" />
            <mxPoint x="380" y="307.08000000000004" as="targetPoint" />
          </mxGeometry>
        </mxCell>
        <mxCell id="0n9UJO-PWEgKDpVl8PzF-139" value="" style="endArrow=classic;html=1;rounded=0;" edge="1" parent="1">
          <mxGeometry width="50" height="50" relative="1" as="geometry">
            <mxPoint x="362.63" y="315" as="sourcePoint" />
            <mxPoint x="382.63" y="315" as="targetPoint" />
          </mxGeometry>
        </mxCell>
        <mxCell id="0n9UJO-PWEgKDpVl8PzF-140" value="" style="endArrow=classic;html=1;rounded=0;" edge="1" parent="1">
          <mxGeometry width="50" height="50" relative="1" as="geometry">
            <mxPoint x="362.63" y="320" as="sourcePoint" />
            <mxPoint x="382.63" y="320" as="targetPoint" />
          </mxGeometry>
        </mxCell>
        <mxCell id="0n9UJO-PWEgKDpVl8PzF-141" value="" style="endArrow=classic;html=1;rounded=0;" edge="1" parent="1">
          <mxGeometry width="50" height="50" relative="1" as="geometry">
            <mxPoint x="363" y="365.58000000000004" as="sourcePoint" />
            <mxPoint x="383" y="365.58000000000004" as="targetPoint" />
          </mxGeometry>
        </mxCell>
        <mxCell id="0n9UJO-PWEgKDpVl8PzF-142" value="" style="endArrow=classic;html=1;rounded=0;" edge="1" parent="1">
          <mxGeometry width="50" height="50" relative="1" as="geometry">
            <mxPoint x="362.63" y="373.5" as="sourcePoint" />
            <mxPoint x="382.63" y="373.5" as="targetPoint" />
          </mxGeometry>
        </mxCell>
        <mxCell id="0n9UJO-PWEgKDpVl8PzF-143" value="" style="endArrow=classic;html=1;rounded=0;" edge="1" parent="1">
          <mxGeometry width="50" height="50" relative="1" as="geometry">
            <mxPoint x="363" y="380" as="sourcePoint" />
            <mxPoint x="383" y="380" as="targetPoint" />
          </mxGeometry>
        </mxCell>
        <mxCell id="0n9UJO-PWEgKDpVl8PzF-147" value="" style="endArrow=classic;html=1;rounded=0;" edge="1" parent="1">
          <mxGeometry width="50" height="50" relative="1" as="geometry">
            <mxPoint x="362.63" y="70" as="sourcePoint" />
            <mxPoint x="382.63" y="70" as="targetPoint" />
          </mxGeometry>
        </mxCell>
        <mxCell id="0n9UJO-PWEgKDpVl8PzF-148" value="" style="endArrow=classic;html=1;rounded=0;" edge="1" parent="1">
          <mxGeometry width="50" height="50" relative="1" as="geometry">
            <mxPoint x="362.63" y="79.58" as="sourcePoint" />
            <mxPoint x="382.63" y="79.58" as="targetPoint" />
          </mxGeometry>
        </mxCell>
        <mxCell id="0n9UJO-PWEgKDpVl8PzF-149" value="" style="endArrow=classic;html=1;rounded=0;" edge="1" parent="1">
          <mxGeometry width="50" height="50" relative="1" as="geometry">
            <mxPoint x="363" y="89.17" as="sourcePoint" />
            <mxPoint x="383" y="89.17" as="targetPoint" />
          </mxGeometry>
        </mxCell>
        <mxCell id="0n9UJO-PWEgKDpVl8PzF-150" value="" style="image;html=1;image=img/lib/clip_art/computers/Monitor_128x128.png;rotation=-180;" vertex="1" parent="1">
          <mxGeometry x="298.5" y="470" width="50" height="20" as="geometry" />
        </mxCell>
        <mxCell id="0n9UJO-PWEgKDpVl8PzF-151" value="" style="image;html=1;image=img/lib/clip_art/computers/Monitor_128x128.png;rotation=-180;" vertex="1" parent="1">
          <mxGeometry x="358.5" y="470" width="50" height="20" as="geometry" />
        </mxCell>
        <mxCell id="0n9UJO-PWEgKDpVl8PzF-153" value="" style="image;html=1;image=img/lib/clip_art/computers/Server_Rack_128x128.png;rotation=90;" vertex="1" parent="1">
          <mxGeometry x="425" y="470" width="40" height="30.5" as="geometry" />
        </mxCell>
        <mxCell id="0n9UJO-PWEgKDpVl8PzF-161" style="edgeStyle=orthogonalEdgeStyle;rounded=0;orthogonalLoop=1;jettySize=auto;html=1;entryX=0.45;entryY=0.122;entryDx=0;entryDy=0;entryPerimeter=0;" edge="1" parent="1" source="0n9UJO-PWEgKDpVl8PzF-158" target="0n9UJO-PWEgKDpVl8PzF-35">
          <mxGeometry relative="1" as="geometry" />
        </mxCell>
        <mxCell id="0n9UJO-PWEgKDpVl8PzF-158" value="" style="fontColor=#0066CC;verticalAlign=top;verticalLabelPosition=bottom;labelPosition=center;align=center;html=1;outlineConnect=0;fillColor=#CCCCCC;strokeColor=#6881B3;gradientColor=none;gradientDirection=north;strokeWidth=2;shape=mxgraph.networks.video_projector;rotation=-180;" vertex="1" parent="1">
          <mxGeometry x="325" y="60" width="30" height="20" as="geometry" />
        </mxCell>
        <mxCell id="0n9UJO-PWEgKDpVl8PzF-160" value="" style="fontColor=#0066CC;verticalAlign=top;verticalLabelPosition=bottom;labelPosition=center;align=center;html=1;outlineConnect=0;fillColor=#CCCCCC;strokeColor=#6881B3;gradientColor=none;gradientDirection=north;strokeWidth=2;shape=mxgraph.networks.video_projector_screen;" vertex="1" parent="1">
          <mxGeometry x="323.5" y="-1" width="30" height="41" as="geometry" />
        </mxCell>
        <mxCell id="0n9UJO-PWEgKDpVl8PzF-163" value="" style="image;html=1;image=img/lib/clip_art/computers/Server_Rack_128x128.png;rotation=-180;" vertex="1" parent="1">
          <mxGeometry x="318.5" y="510" width="60" height="50" as="geometry" />
        </mxCell>
        <mxCell id="0n9UJO-PWEgKDpVl8PzF-164" value="" style="image;html=1;image=img/lib/clip_art/computers/Server_Rack_128x128.png;rotation=-180;" vertex="1" parent="1">
          <mxGeometry x="354" y="510" width="60" height="50" as="geometry" />
        </mxCell>
        <mxCell id="0n9UJO-PWEgKDpVl8PzF-165" value="" style="image;html=1;image=img/lib/clip_art/computers/Server_Rack_128x128.png;rotation=-180;" vertex="1" parent="1">
          <mxGeometry x="393.5" y="510" width="60" height="50" as="geometry" />
        </mxCell>
        <mxCell id="0n9UJO-PWEgKDpVl8PzF-166" value="" style="image;html=1;image=img/lib/clip_art/computers/Server_Rack_Empty_128x128.png;rotation=-180;" vertex="1" parent="1">
          <mxGeometry x="283.5" y="510" width="50" height="50" as="geometry" />
        </mxCell>
        <mxCell id="0n9UJO-PWEgKDpVl8PzF-167" value="" style="image;html=1;image=img/lib/clip_art/computers/Server_Rack_Empty_128x128.png;rotation=-180;" vertex="1" parent="1">
          <mxGeometry x="250" y="510" width="50" height="50" as="geometry" />
        </mxCell>
      </root>
    </mxGraphModel>
  </diagram>
</mxfile>
